<?xml version="1.0" encoding="UTF-8"?>
<svg id="Layer_1" data-name="Layer 1" xmlns="http://www.w3.org/2000/svg" viewBox="0 0 292.66 333.23">
  <defs>
    <style>
      .cls-1 {
        fill: #900;
      }

      .cls-1, .cls-2, .cls-3 {
        stroke-width: 0px;
      }

      .cls-2 {
        fill: #fff;
      }

      .cls-3 {
        fill: #011f5b;
      }
    </style>
  </defs>
  <path class="cls-2" d="m292.66,0H0s0,145.12,0,145.88c-.19,63.51,35,109.5,64.56,136.91,32.51,30.14,68.34,47.51,80.32,50.12l1.45.31,1.47-.31c11.96-2.61,47.8-19.98,80.31-50.12,29.56-27.4,64.75-73.4,64.56-136.9,0-1.82,0-145.89,0-145.89Z"/>
  <g>
    <path class="cls-1" d="m7.4,8.71s.39,84.78-.02,84.37h277.9V8.71H7.4Z"/>
    <path class="cls-3" d="m287.11,5.55H5.56s0,138.5,0,140.35c-.19,61.49,34.03,106.17,62.78,132.82,31.34,29.05,66.63,46.35,77.71,48.77l.29.06.29-.06c11.09-2.41,46.38-19.71,77.71-48.77,28.74-26.65,62.97-71.32,62.78-132.82,0-1.85,0-140.35,0-140.35Zm-3.91,3.91c0,8.97,0,47.02,0,80.67H9.47c0-33.65,0-71.7,0-80.67h273.74ZM63.78,226.94c-9.42-9.42-9.42-24.69,0-34.1,9.42-9.42,24.69-9.42,34.1,0,9.42,9.42,9.42,24.69,0,34.1-9.42,9.42-24.69,9.42-34.1,0Zm157.89,48.91c-32.56,30.19-66.3,45.4-75.34,47.68-9.04-2.28-42.78-17.5-75.34-47.68-.79-.73-1.59-1.48-2.39-2.25l77.73-82.52,77.73,82.52c-.8.76-1.6,1.51-2.39,2.25Zm-99.45-125.78c0-13.32,10.79-24.11,24.11-24.11s24.11,10.79,24.11,24.11-10.79,24.11-24.11,24.11-24.11-10.79-24.11-24.11Zm106.66,76.87c-9.42,9.42-24.69,9.42-34.1,0-9.42-9.42-9.42-24.69,0-34.1,9.42-9.42,24.69-9.42,34.1,0,9.42,9.42,9.42,24.69,0,34.1Zm38.72-12.2l-121.27-116.96L25.07,214.74c-9.41-19.8-15.68-42.78-15.6-68.83,0-.77,0-24.37,0-51.88h273.73c0,27.5,0,51.11,0,51.88.08,26.05-6.18,49.03-15.6,68.83Z"/>
  </g>
</svg>